<?xml version="1.0" standalone="no"?>
<!DOCTYPE svg PUBLIC "-//W3C//DTD SVG 20010904//EN"
 "http://www.w3.org/TR/2001/REC-SVG-20010904/DTD/svg10.dtd">
<svg version="1.0" xmlns="http://www.w3.org/2000/svg"
 width="1170.000000pt" height="1170.000000pt" viewBox="0 0 1170.000000 1170.000000"
 preserveAspectRatio="xMidYMid meet">
<metadata>
Created by potrace 1.14, written by Peter Selinger 2001-2017
</metadata>
<g transform="translate(0.000000,1170.000000) scale(0.100000,-0.100000)"
fill="#000000" stroke="none">
<path d="M6145 10400 c-33 -5 -138 -13 -234 -19 -96 -6 -179 -15 -185 -20 -6
-5 -38 -11 -71 -14 -61 -4 -137 -21 -166 -37 -9 -5 -38 -12 -65 -16 -27 -4
-51 -10 -54 -13 -8 -10 -80 -41 -95 -41 -11 0 -89 -38 -217 -107 -16 -8 -28
-19 -28 -24 0 -5 -6 -9 -13 -9 -7 0 -24 -11 -39 -25 -15 -14 -31 -25 -35 -25
-11 0 -133 -123 -133 -134 0 -5 -13 -24 -30 -43 -16 -18 -30 -39 -30 -45 0 -7
-11 -23 -23 -37 -27 -30 -60 -118 -89 -241 -11 -47 -22 -91 -24 -99 -4 -11
-16 -12 -62 -5 -136 19 -231 2 -308 -56 -29 -22 -56 -40 -59 -40 -11 0 -122
-118 -143 -152 -12 -18 -37 -49 -56 -67 -20 -19 -36 -41 -36 -48 0 -6 -10 -22
-23 -35 -29 -31 -80 -138 -101 -213 -10 -33 -23 -71 -31 -85 -26 -50 -58 -187
-70 -305 -13 -122 -3 -401 14 -435 5 -9 12 -36 15 -60 4 -25 21 -71 38 -104
30 -57 30 -61 23 -150 -4 -50 -13 -109 -20 -131 -7 -22 -18 -71 -24 -110 -7
-38 -15 -83 -18 -100 -3 -16 -11 -73 -17 -125 l-11 -95 -70 3 c-91 5 -377 -17
-389 -29 -6 -5 -20 -9 -33 -9 -12 0 -27 -8 -32 -18 -12 -23 -51 -183 -51 -210
0 -12 -4 -23 -9 -27 -6 -3 -5 -18 2 -38 14 -38 78 -137 101 -156 9 -7 16 -18
16 -23 0 -5 5 -14 10 -21 6 -7 27 -37 47 -69 38 -59 79 -82 90 -49 3 9 8 25
13 36 4 11 15 47 26 80 10 33 26 76 36 95 10 19 18 40 18 46 0 22 85 136 108
145 34 13 90 11 98 -3 5 -7 7 -70 5 -140 -2 -113 -1 -128 13 -128 9 0 19 6 21
13 8 21 27 160 28 207 l2 45 70 -3 c78 -2 225 -23 385 -54 58 -11 131 -24 163
-28 32 -4 70 -13 85 -18 15 -6 67 -21 117 -33 49 -12 112 -31 140 -42 27 -10
59 -21 70 -24 11 -4 22 -9 25 -12 9 -11 72 -41 85 -41 8 0 22 -13 32 -30 13
-22 25 -30 45 -30 19 0 28 -5 28 -16 0 -13 -6 -15 -32 -9 -18 4 -70 9 -115 12
-63 3 -83 8 -83 19 0 8 -5 14 -10 14 -6 0 -21 9 -33 21 -12 11 -31 25 -42 30
-11 5 -33 17 -50 27 -16 10 -55 27 -85 37 -30 11 -61 23 -67 28 -7 5 -71 12
-142 15 -107 4 -138 2 -182 -13 -77 -26 -120 -45 -140 -64 -10 -9 -51 -34 -91
-55 -152 -81 -207 -134 -234 -222 -19 -64 -8 -74 26 -21 30 48 87 97 104 91 8
-3 9 -31 5 -87 -6 -83 7 -164 26 -160 6 2 11 18 13 37 2 19 10 40 18 46 8 7
14 19 14 26 0 22 70 132 112 176 44 47 121 98 149 98 17 0 14 -7 -22 -48 -132
-154 -152 -442 -37 -524 59 -42 185 -108 205 -108 6 0 13 -7 17 -15 7 -19 45
-19 70 0 11 8 31 15 45 16 24 0 23 2 -9 14 -53 19 -39 43 47 85 59 28 83 26
83 -5 0 -14 3 -25 6 -25 3 0 26 18 51 40 58 51 97 133 122 259 13 60 0 160
-25 195 -40 58 12 46 73 -16 51 -52 133 -177 133 -201 0 -7 6 -21 14 -32 7
-11 16 -37 20 -57 5 -28 12 -38 25 -38 20 0 31 26 31 78 0 17 4 32 9 32 5 0
11 14 15 31 8 43 40 81 55 66 6 -6 11 -23 11 -37 0 -35 38 -70 77 -70 21 0 49
15 93 48 63 49 71 53 125 54 64 3 101 -12 156 -62 49 -44 55 -47 61 -30 5 13
17 20 32 20 19 0 26 -7 31 -29 3 -16 13 -32 21 -35 23 -9 78 23 97 55 9 17 21
28 26 25 4 -3 16 3 26 14 10 11 31 20 47 20 47 0 32 -29 -35 -65 -43 -23 -45
-33 -14 -67 19 -21 36 -26 102 -32 43 -4 87 -12 97 -17 22 -12 24 -58 4 -97
-17 -35 -46 -238 -39 -275 7 -37 27 -29 31 13 2 18 10 39 18 47 8 8 14 25 14
37 0 40 110 230 139 241 21 8 22 3 7 -51 -36 -127 -28 -240 25 -346 28 -56
102 -138 124 -138 7 0 20 -9 29 -19 24 -27 74 -33 187 -25 97 6 124 17 74 30
-31 8 -32 19 0 48 37 34 100 60 129 52 34 -8 33 -18 -5 -61 -45 -51 -11 -46
54 8 74 61 80 67 97 97 8 15 23 42 33 59 30 53 48 185 36 266 -6 39 -15 77
-20 87 -12 22 11 30 64 21 60 -9 83 -24 146 -96 86 -98 88 -101 136 -192 30
-57 47 -104 51 -140 6 -52 8 -54 26 -40 30 20 61 75 67 118 l6 39 25 -40 25
-40 28 20 c23 16 28 17 33 5 6 -15 8 -84 5 -152 -2 -41 19 -160 37 -206 11
-27 12 -27 117 -28 l106 -1 19 32 c35 58 45 231 16 286 -9 18 -39 57 -66 88
-28 30 -50 57 -50 60 0 7 63 64 72 64 13 0 143 63 170 83 30 22 42 64 54 187
4 41 11 85 15 98 11 29 -14 92 -36 92 -9 0 -40 11 -68 25 -80 37 -181 75 -203
75 -11 0 -25 5 -31 11 -6 6 -24 12 -39 14 -16 2 -60 13 -99 25 -38 12 -90 24
-114 26 -25 3 -50 9 -55 13 -6 5 -35 12 -63 16 -29 4 -53 11 -53 16 0 14 -40
11 -40 -3 0 -7 -5 -5 -11 5 -6 10 -20 17 -32 16 -12 -1 -34 4 -49 11 -20 10
-31 10 -41 2 -8 -7 -17 -8 -23 -3 -5 5 -29 12 -54 15 -25 3 -83 12 -130 21
-113 20 -175 28 -235 29 -27 1 -57 5 -65 10 -29 19 -435 25 -645 9 -303 -22
-467 -20 -605 6 -141 27 -168 35 -250 74 -36 17 -68 30 -72 29 -3 -1 -33 12
-65 28 -32 16 -63 30 -69 30 -5 0 -35 12 -65 26 -45 22 -119 48 -164 59 -5 1
-23 7 -38 13 -16 7 -36 12 -46 12 -9 0 -21 4 -27 9 -13 13 -117 41 -151 41
-16 0 -33 3 -37 8 -11 10 -90 26 -386 78 -52 9 -117 18 -143 21 l-49 5 5 37
c17 112 28 166 37 175 6 6 10 25 10 43 0 18 4 41 10 51 14 24 90 251 97 287 3
17 11 37 17 45 7 8 20 40 31 70 10 30 29 75 42 99 13 24 23 50 23 56 0 7 7 18
15 25 8 7 15 21 15 31 0 11 4 19 9 19 5 0 12 10 15 23 3 12 15 33 26 47 11 14
37 48 57 76 93 126 164 189 279 247 135 68 250 81 420 48 55 -11 135 -24 179
-31 44 -6 100 -14 125 -19 163 -31 403 -74 448 -81 29 -5 74 -13 100 -19 72
-15 193 -31 337 -42 72 -5 162 -14 200 -19 39 -5 158 -9 265 -10 222 0 552
-37 683 -75 54 -16 435 -203 494 -242 19 -13 40 -23 48 -23 8 0 15 -4 15 -9 0
-5 28 -25 63 -44 34 -20 75 -47 90 -61 15 -14 31 -26 35 -26 27 -1 162 -247
162 -294 0 -9 4 -24 9 -34 38 -74 69 -407 57 -617 -4 -76 -2 -141 8 -210 22
-144 37 -219 47 -230 5 -5 9 -21 9 -35 0 -15 6 -46 14 -71 19 -60 46 -182 46
-207 0 -12 5 -24 10 -27 6 -3 10 -30 10 -58 0 -29 5 -68 11 -87 5 -19 14 -66
19 -105 19 -153 49 -242 95 -285 37 -35 116 -33 175 5 35 22 57 28 105 29 34
1 74 9 94 19 22 11 58 17 101 17 l68 0 37 108 c20 59 43 132 51 162 26 108 62
236 88 314 14 43 26 84 26 90 0 15 36 108 71 183 16 34 29 68 29 75 0 8 14 41
30 74 17 32 51 120 76 194 25 74 50 144 55 155 22 46 67 289 80 432 19 201
-13 567 -57 670 -8 17 -14 37 -14 45 0 8 -4 18 -9 24 -5 5 -12 34 -16 64 l-6
55 70 70 c39 38 71 75 71 82 0 7 14 28 30 46 17 19 30 42 30 50 0 9 5 19 11
22 15 10 38 73 54 150 20 92 23 111 16 118 -10 11 -66 -41 -85 -79 -46 -93
-192 -171 -304 -162 -62 5 -71 13 -167 141 -27 37 -65 84 -83 104 -18 21 -47
58 -65 82 -39 54 -457 473 -518 520 -24 18 -66 53 -94 77 -55 48 -140 116
-195 154 -19 13 -44 32 -54 42 -11 10 -24 18 -29 18 -5 0 -25 14 -44 30 -18
17 -40 30 -47 30 -7 0 -23 11 -36 25 -13 14 -29 25 -36 25 -7 0 -28 12 -46 28
-18 15 -53 37 -78 49 -25 12 -55 31 -67 42 -12 12 -28 21 -36 21 -7 0 -26 14
-42 30 -16 17 -37 30 -46 30 -10 0 -21 5 -24 10 -4 6 -21 17 -38 25 -18 8 -54
29 -81 46 -27 16 -62 33 -77 36 -16 3 -34 12 -40 19 -6 8 -18 14 -25 14 -7 0
-38 11 -68 25 -30 14 -60 25 -65 25 -6 0 -19 4 -29 9 -102 52 -381 130 -543
151 -37 5 -93 13 -125 19 -65 12 -377 13 -469 1z m-1788 -3876 c28 -21 33 -31
33 -66 0 -54 -39 -98 -85 -98 -71 0 -114 101 -62 147 25 23 57 42 71 43 5 0
24 -11 43 -26z m1082 -35 c14 -2 26 -10 29 -18 4 -11 -2 -12 -24 -7 -16 4 -45
8 -64 8 l-35 0 28 11 c15 6 27 16 27 21 0 7 3 7 8 0 4 -7 18 -14 31 -15z m886
-19 c3 -5 18 -9 33 -8 69 4 193 -3 188 -11 -7 -11 -576 -13 -576 -2 0 22 342
42 355 21z m399 -40 c19 -1 20 -1 3 -11 -11 -7 -42 -8 -85 -3 -61 7 -64 9 -32
15 19 4 48 5 64 3 16 -2 38 -4 50 -4z m221 -30 c19 -1 19 -1 2 -11 -11 -6 -40
-8 -75 -3 -44 5 -52 9 -37 15 11 5 36 6 55 4 19 -3 44 -5 55 -5z m190 -33 c46
-8 161 -21 168 -19 4 1 18 -4 30 -13 12 -8 33 -15 47 -15 14 0 34 -7 44 -15
11 -8 31 -15 45 -15 35 0 91 -56 91 -91 0 -15 5 -31 10 -34 6 -3 10 -18 10
-33 1 -15 7 -38 15 -52 16 -29 19 -76 5 -85 -5 -3 -19 14 -31 37 -11 24 -30
52 -40 63 -11 11 -29 32 -40 48 -11 15 -26 27 -33 27 -7 0 -68 30 -135 66
-110 59 -270 124 -306 124 -8 0 -17 5 -21 11 -6 10 74 8 141 -4z m-570 -208
c38 -46 32 -92 -17 -132 -41 -33 -67 -32 -109 2 -19 16 -24 29 -24 69 0 41 4
53 25 71 39 32 92 28 125 -10z m909 -315 c3 -8 2 -12 -4 -9 -6 3 -10 10 -10
16 0 14 7 11 14 -7z"/>
<path d="M4180 7471 c-79 -52 -210 -216 -210 -261 0 -29 14 -25 81 20 79 55
197 110 232 110 103 0 246 -78 601 -328 82 -58 109 -56 64 4 -79 106 -294 296
-457 403 -115 76 -116 76 -191 79 -70 3 -78 1 -120 -27z"/>
<path d="M3602 6252 c30 -67 43 -92 50 -92 15 0 8 48 -7 54 -8 3 -15 15 -15
26 0 12 -7 20 -16 20 -9 0 -14 -3 -12 -8z"/>
<path d="M5041 6044 c0 -11 3 -14 6 -6 3 7 2 16 -1 19 -3 4 -6 -2 -5 -13z"/>
<path d="M8992 5359 c-100 -19 -237 -132 -286 -234 -46 -98 -31 -100 62 -9 53
52 91 78 181 122 128 64 145 80 117 111 -11 12 -22 21 -25 20 -3 -1 -25 -5
-49 -10z"/>
<path d="M3513 5215 c0 -27 2 -38 4 -22 2 15 2 37 0 50 -2 12 -4 0 -4 -28z"/>
<path d="M4787 5035 c-22 -129 82 -260 256 -321 70 -24 97 -28 182 -28 107 0
150 12 211 59 62 47 92 155 43 155 -11 0 -19 -4 -19 -8 0 -12 -95 -49 -160
-63 -193 -41 -461 69 -496 204 l-11 42 -6 -40z"/>
<path d="M3512 4762 c-2 -174 0 -192 13 -178 14 13 14 32 5 143 -6 70 -12 151
-13 178 -2 28 -4 -37 -5 -143z"/>
<path d="M8375 4642 c-14 -15 -28 -35 -31 -44 -3 -10 -9 -18 -13 -18 -4 0 -16
-18 -26 -40 -10 -22 -22 -40 -27 -40 -4 0 -8 -9 -8 -19 0 -11 -4 -22 -9 -26
-5 -3 -24 -35 -43 -70 -18 -36 -50 -84 -71 -107 -70 -79 -399 -408 -407 -408
-4 0 -23 -12 -42 -27 -19 -16 -50 -39 -68 -53 -18 -14 -70 -55 -114 -91 -229
-187 -345 -267 -626 -431 -126 -74 -345 -186 -450 -232 -47 -21 -94 -41 -105
-46 -50 -23 -181 -70 -193 -70 -7 0 -20 -4 -30 -10 -31 -17 -154 -49 -277 -71
-103 -18 -146 -21 -302 -17 -101 3 -183 1 -183 -2 0 -4 9 -18 19 -32 11 -13
23 -36 26 -50 l6 -24 207 2 c149 2 224 7 267 18 32 9 80 16 107 16 26 0 49 4
52 9 4 5 25 12 49 16 23 3 51 10 62 15 11 5 58 16 105 25 47 9 98 23 114 31
16 8 36 14 45 14 9 0 29 7 45 15 15 8 38 15 50 15 11 0 30 7 40 15 11 8 31 15
45 15 14 0 35 7 45 15 11 8 28 15 37 15 10 0 39 11 65 25 26 14 54 25 64 25 9
0 25 7 36 15 10 8 29 15 41 15 12 0 23 4 25 8 2 5 55 34 118 65 140 70 219
113 240 132 9 8 24 15 32 15 9 0 21 7 28 15 7 8 18 15 25 15 8 0 15 4 17 8 2
4 32 26 68 47 36 22 74 48 85 58 11 10 36 28 55 40 76 46 215 172 437 394 127
128 234 241 237 250 8 24 95 63 142 63 l37 0 -38 33 -38 33 10 119 c7 78 20
148 37 200 15 43 25 86 24 95 -1 8 1 20 5 26 15 26 -24 22 -48 -4z"/>
<path d="M4551 4321 c-19 -12 43 -39 119 -52 30 -5 71 -13 90 -19 19 -5 51
-10 70 -10 19 0 57 -7 84 -15 27 -8 71 -15 97 -15 26 0 60 -5 76 -12 15 -6 60
-15 98 -19 39 -4 99 -14 135 -24 65 -16 86 -21 210 -45 36 -7 72 -16 81 -20 9
-5 33 -12 53 -15 20 -4 39 -11 42 -16 3 -5 12 -9 21 -9 14 0 66 -20 105 -41
10 -5 28 -9 40 -9 22 0 21 1 -7 24 -26 21 -139 82 -200 108 -11 4 -54 17 -95
27 -41 10 -123 33 -182 50 -134 39 -272 66 -413 81 -60 7 -144 18 -185 26 -84
16 -218 18 -239 5z"/>
<path d="M8430 4130 c0 -6 7 -10 15 -10 8 0 15 2 15 4 0 2 -7 6 -15 10 -8 3
-15 1 -15 -4z"/>
<path d="M8535 4100 c-30 -8 -30 -8 8 -9 23 -1 36 3 32 9 -3 6 -7 9 -8 9 -1
-1 -15 -5 -32 -9z"/>
<path d="M4037 3983 c-17 -61 -17 -73 -2 -73 11 0 15 11 15 45 0 47 -5 58 -13
28z"/>
<path d="M4004 3855 c-6 -35 1 -73 13 -62 10 11 13 86 3 92 -5 3 -12 -10 -16
-30z"/>
<path d="M3979 3688 c-2 -136 4 -171 40 -246 19 -39 94 -112 115 -112 8 0 16
-5 18 -11 2 -6 14 -9 27 -7 l23 3 -25 27 c-14 15 -22 29 -19 32 3 3 1 6 -5 6
-12 0 -114 131 -138 176 -10 19 -15 57 -15 117 0 51 -4 87 -10 87 -6 0 -10
-32 -11 -72z"/>
<path d="M6355 3385 c-74 -33 -507 -186 -680 -240 -384 -121 -734 -237 -770
-256 -22 -11 -50 -32 -63 -46 -22 -24 -22 -26 -5 -39 23 -17 97 -18 131 -1 15
8 55 28 89 45 35 18 73 32 85 32 13 0 32 7 42 15 11 8 30 15 42 15 13 0 25 4
29 9 8 13 65 41 84 41 9 0 30 9 46 20 17 11 37 20 46 20 9 0 30 7 45 15 16 8
39 15 51 15 12 0 25 5 28 10 3 6 14 10 23 10 9 0 30 7 46 15 15 8 37 15 47 15
11 0 36 9 56 20 21 11 44 20 51 20 7 0 31 9 53 19 22 11 54 23 72 27 18 3 34
9 37 13 11 13 73 41 91 41 11 0 44 14 74 30 30 17 63 30 74 30 21 0 84 30 89
43 2 4 16 7 32 7 15 0 33 7 40 15 7 8 19 15 27 15 17 0 46 27 41 38 -2 5 -26
-1 -53 -13z"/>
<path d="M5401 2631 c-6 -11 -11 -25 -11 -31 0 -12 -22 -68 -41 -103 -6 -10
-19 -35 -30 -56 -38 -73 -119 -142 -237 -203 -193 -100 -237 -163 -71 -103 57
20 91 29 131 34 3 1 15 17 27 37 12 19 25 33 30 29 5 -3 12 4 16 14 3 11 27
40 52 63 123 116 143 140 143 173 0 18 7 38 15 45 19 16 20 93 1 109 -12 10
-17 8 -25 -8z"/>
<path d="M5271 2170 c-13 -7 -11 -16 9 -55 22 -43 23 -49 11 -113 -16 -86 -33
-138 -72 -212 -53 -101 -117 -152 -250 -196 -87 -29 -169 -80 -169 -105 0 -12
7 -19 20 -19 11 0 20 4 20 9 0 12 45 28 100 37 25 3 50 9 55 13 6 4 26 14 45
21 19 7 47 22 62 32 14 10 33 18 41 18 8 0 18 8 21 18 14 37 38 72 71 104 19
18 35 40 35 49 0 9 7 22 15 29 8 7 15 20 15 30 0 10 7 24 16 31 15 12 16 30
11 132 -5 88 -10 122 -21 131 -8 6 -16 21 -18 33 -2 17 -7 20 -17 13z"/>
<path d="M2870 1466 c0 -9 5 -16 10 -16 6 0 10 4 10 9 0 6 -4 13 -10 16 -5 3
-10 -1 -10 -9z"/>
<path d="M2900 1413 c0 -13 5 -23 10 -23 13 0 13 11 0 30 -8 12 -10 11 -10 -7z"/>
<path d="M2930 1360 c0 -11 4 -20 9 -20 5 0 7 9 4 20 -3 11 -7 20 -9 20 -2 0
-4 -9 -4 -20z"/>
<path d="M2960 1320 c0 -5 5 -10 11 -10 5 0 7 5 4 10 -3 6 -8 10 -11 10 -2 0
-4 -4 -4 -10z"/>
<path d="M5200 1274 c-60 -95 -164 -177 -317 -250 -45 -21 -82 -42 -82 -46 -1
-14 46 -8 59 7 7 8 21 15 32 15 10 0 21 7 24 15 4 8 16 15 29 15 12 0 28 7 35
15 7 8 18 15 25 15 7 0 24 11 39 25 15 14 32 25 38 25 20 0 128 118 128 139 0
11 7 24 16 29 9 5 14 18 12 30 -2 17 -9 11 -38 -34z"/>
<path d="M2980 1293 c0 -6 7 -18 15 -27 8 -8 15 -18 15 -22 0 -10 70 -74 82
-74 5 0 -5 15 -24 33 -18 19 -45 49 -60 68 -15 19 -28 29 -28 22z"/>
<path d="M3107 1140 c12 -10 27 -27 35 -37 16 -23 136 -103 153 -103 7 0 15
-7 19 -15 3 -8 16 -15 30 -15 13 0 26 -3 28 -7 7 -16 71 -43 103 -43 18 0 38
-7 45 -15 8 -10 31 -15 69 -15 31 -1 74 -7 96 -15 48 -17 335 -21 365 -5 11 6
84 13 162 17 79 3 149 10 156 16 7 5 76 12 155 15 86 3 145 9 149 16 4 6 15
11 25 12 10 0 33 1 51 2 17 1 32 7 32 13 0 8 -15 10 -47 5 -92 -13 -398 -31
-728 -42 -214 -7 -420 11 -535 47 -86 26 -256 110 -313 154 -49 37 -85 48 -50
15z"/>
</g>
</svg>
