<?xml version="1.0" standalone="no"?>
<!DOCTYPE svg PUBLIC "-//W3C//DTD SVG 20010904//EN"
 "http://www.w3.org/TR/2001/REC-SVG-20010904/DTD/svg10.dtd">
<svg version="1.0" xmlns="http://www.w3.org/2000/svg"
 width="1170.000000pt" height="1170.000000pt" viewBox="0 0 1170.000000 1170.000000"
 preserveAspectRatio="xMidYMid meet">
<metadata>
Created by potrace 1.14, written by Peter Selinger 2001-2017
</metadata>
<g transform="translate(0.000000,1170.000000) scale(0.100000,-0.100000)"
fill="#000000" stroke="none">
<path d="M6227 10414 c-3 -3 -120 -14 -197 -19 -288 -18 -293 -19 -305 -27 -9
-5 -102 -19 -142 -21 -7 0 -13 -3 -13 -7 0 -3 -14 -7 -31 -8 -17 -1 -40 -7
-51 -13 -23 -12 -53 -20 -89 -22 -14 -1 -32 -7 -40 -12 -21 -16 -62 -34 -84
-39 -31 -6 -105 -38 -105 -46 0 -4 -12 -10 -27 -13 -16 -3 -38 -15 -50 -26
-12 -12 -28 -21 -35 -21 -8 0 -21 -8 -30 -17 -22 -24 -46 -43 -53 -43 -7 0
-29 -17 -71 -56 -18 -17 -36 -29 -39 -26 -3 3 -5 0 -5 -7 0 -6 -11 -22 -25
-35 -14 -13 -25 -27 -25 -32 0 -5 -16 -26 -35 -47 -19 -21 -33 -43 -30 -48 4
-5 1 -9 -5 -9 -6 0 -9 -4 -6 -9 3 -5 0 -11 -8 -14 -18 -7 -43 -58 -40 -80 1
-9 -2 -17 -7 -17 -5 0 -9 -8 -9 -17 0 -10 -7 -27 -15 -37 -8 -11 -15 -32 -15
-47 0 -14 -7 -46 -15 -70 -9 -24 -13 -49 -11 -55 8 -21 -21 -37 -51 -29 -16 4
-37 9 -48 12 -38 9 -110 6 -155 -6 -77 -22 -94 -31 -130 -61 -19 -17 -38 -30
-43 -30 -11 0 -157 -151 -157 -162 0 -6 -17 -27 -37 -47 -21 -20 -39 -43 -41
-51 -2 -8 -14 -26 -26 -40 -13 -14 -29 -40 -36 -57 -7 -18 -16 -33 -21 -33 -5
0 -8 -3 -7 -7 1 -5 -5 -22 -14 -39 -9 -17 -18 -43 -20 -57 -2 -14 -7 -29 -11
-33 -4 -4 -7 -15 -7 -25 0 -22 -31 -91 -45 -101 -5 -4 -7 -8 -3 -8 3 0 0 -20
-7 -44 -8 -24 -11 -47 -8 -50 4 -3 2 -6 -3 -6 -6 0 -11 -10 -11 -22 -4 -69
-17 -196 -28 -273 -1 -5 1 -14 4 -20 3 -5 7 -37 7 -70 3 -86 15 -208 22 -220
4 -5 8 -21 9 -35 6 -48 8 -55 38 -115 25 -49 29 -71 27 -120 -2 -67 -7 -103
-15 -125 -6 -15 -28 -122 -29 -137 0 -5 -4 -15 -8 -24 -5 -8 -10 -39 -11 -67
-2 -29 -5 -52 -8 -52 -4 0 -7 -17 -8 -37 -5 -98 -11 -135 -23 -143 -8 -5 -19
-6 -24 -2 -12 7 -186 9 -186 2 0 -3 -28 -6 -63 -7 -108 -3 -179 -10 -186 -20
-3 -5 -13 -8 -21 -8 -20 2 -41 -15 -34 -26 3 -5 0 -9 -5 -9 -6 0 -10 -3 -9 -7
1 -5 -2 -19 -5 -33 -4 -14 -9 -36 -11 -50 -3 -14 -5 -26 -7 -27 -1 -2 -2 -11
-3 -20 -1 -10 -5 -24 -9 -30 -5 -7 -6 -17 -3 -22 3 -4 -1 -17 -8 -27 -11 -14
-12 -23 -3 -39 6 -11 11 -25 12 -32 0 -6 9 -22 20 -35 11 -13 26 -36 34 -50 8
-15 21 -36 30 -45 28 -31 63 -83 55 -83 -4 0 1 -7 12 -15 10 -8 15 -15 10 -15
-5 0 3 -11 18 -25 14 -13 25 -28 24 -32 -2 -5 13 -8 32 -8 28 0 35 4 35 20 0
11 6 25 14 31 8 6 11 15 8 21 -3 5 0 22 8 37 9 16 10 24 3 20 -6 -4 -4 3 5 17
9 13 17 31 17 40 0 9 6 22 14 29 8 6 13 17 10 24 -3 8 2 21 11 29 8 9 15 20
14 24 -3 20 2 34 10 28 6 -3 17 10 26 29 22 46 43 62 90 69 49 8 78 -13 65
-47 -11 -30 -7 -305 5 -314 15 -10 17 -32 5 -46 -5 -7 -6 -17 -2 -21 4 -5 2
-5 -4 -2 -7 4 -15 0 -18 -9 -4 -9 -13 -14 -22 -10 -8 3 -12 2 -9 -4 3 -6 1
-10 -5 -10 -6 0 -9 -4 -5 -9 3 -5 -4 -12 -15 -16 -11 -4 -18 -11 -15 -16 4 -5
-3 -22 -14 -38 -29 -40 -41 -117 -40 -256 1 -44 0 -96 0 -115 0 -19 -1 -59 -2
-87 -1 -29 -4 -51 -8 -49 -3 2 -5 -16 -4 -40 1 -24 -2 -46 -7 -49 -4 -3 -7
-17 -5 -33 13 -98 13 -112 2 -124 -7 -8 -14 -20 -16 -28 -7 -33 -8 -60 -1 -60
4 0 7 -11 6 -25 0 -14 -4 -25 -7 -25 -3 0 -6 -6 -6 -12 -1 -7 -4 -31 -7 -53
-4 -22 -9 -94 -11 -160 -3 -66 -7 -151 -10 -190 -8 -119 -10 -295 -4 -295 4 0
6 -23 5 -50 -1 -27 1 -50 4 -50 4 0 5 -26 4 -58 -3 -75 -2 -74 -14 -67 -6 4
-7 -1 -3 -11 5 -14 2 -16 -15 -12 -15 4 -22 2 -22 -8 0 -8 -5 -14 -11 -14 -5
0 -7 -5 -4 -10 3 -6 -2 -22 -13 -38 -14 -20 -18 -41 -17 -81 2 -29 7 -56 12
-60 5 -3 9 -31 9 -61 1 -66 6 -100 19 -119 10 -17 15 -301 5 -301 -4 0 -6 -10
-5 -23 1 -12 -2 -25 -8 -28 -5 -4 -10 -28 -12 -54 -1 -27 -8 -51 -16 -56 -8
-5 -10 -9 -4 -9 5 0 4 -5 -2 -11 -6 -6 -9 -18 -6 -26 3 -7 -2 -22 -11 -32 -9
-9 -17 -31 -18 -47 -1 -16 -8 -37 -16 -46 -8 -9 -11 -21 -8 -27 4 -5 -2 -16
-12 -23 -12 -8 -18 -22 -15 -37 2 -14 0 -22 -3 -18 -4 4 -14 -2 -21 -13 -8
-11 -19 -18 -24 -15 -5 4 -9 1 -9 -6 0 -16 -66 -80 -74 -72 -3 4 -6 1 -6 -5 0
-6 -20 -30 -45 -53 -24 -23 -42 -46 -38 -52 3 -6 2 -8 -3 -5 -5 3 -15 0 -22
-8 -7 -8 -9 -14 -5 -14 4 0 -1 -7 -11 -15 -11 -8 -17 -15 -13 -15 4 0 -5 -12
-20 -28 -16 -15 -36 -44 -46 -64 -10 -21 -26 -43 -37 -51 -11 -8 -17 -17 -13
-20 3 -4 -1 -7 -10 -7 -10 0 -17 -5 -17 -11 0 -7 -8 -18 -17 -26 -10 -8 -12
-11 -5 -8 11 6 11 3 0 -14 -7 -12 -15 -21 -18 -21 -3 0 -16 -20 -30 -45 -14
-25 -28 -45 -32 -45 -5 0 -8 -9 -8 -20 0 -10 -7 -23 -16 -28 -9 -5 -15 -12
-15 -15 1 -8 0 -16 -4 -32 -1 -5 -3 -18 -3 -28 -1 -10 -6 -16 -11 -13 -5 3 -9
-6 -10 -22 -1 -54 -2 -62 -12 -62 -5 0 -8 -3 -8 -7 1 -5 0 -10 -1 -13 -3 -7
-12 -110 -12 -143 0 -15 -3 -27 -7 -27 -3 0 -6 -49 -6 -109 0 -60 3 -107 6
-105 4 2 7 -9 7 -24 2 -77 10 -161 18 -173 10 -16 12 -29 16 -81 2 -21 6 -38
11 -38 4 0 6 -3 6 -8 -1 -4 0 -9 1 -12 4 -11 11 -46 13 -70 2 -14 7 -32 12
-40 5 -8 11 -22 13 -30 2 -8 4 -22 6 -30 8 -35 19 -60 27 -60 5 0 9 -9 9 -19
0 -11 5 -23 10 -26 6 -4 8 -10 5 -15 -3 -4 2 -13 10 -20 7 -6 12 -17 9 -25 -3
-7 0 -16 5 -20 6 -3 9 -11 6 -16 -4 -5 -1 -9 4 -9 6 0 11 -5 11 -10 0 -6 9
-20 20 -32 10 -12 17 -25 14 -30 -3 -4 2 -11 10 -14 9 -3 14 -10 11 -14 -2 -4
4 -18 15 -30 11 -13 20 -27 20 -31 0 -12 185 -199 212 -215 13 -7 30 -17 38
-21 8 -4 21 -13 28 -20 7 -7 20 -13 27 -13 8 0 18 -7 23 -15 4 -9 18 -17 30
-18 12 -1 22 -4 22 -7 0 -3 9 -6 20 -7 11 -1 27 -9 36 -17 8 -9 28 -16 43 -16
15 0 31 -3 35 -8 4 -4 12 -8 17 -8 5 -1 10 -3 12 -4 1 -1 16 -4 32 -5 17 -2
30 -4 30 -5 0 -1 11 -3 25 -5 14 -2 36 -6 50 -10 51 -12 450 -5 540 10 19 3
64 8 100 10 125 9 155 12 191 19 20 4 70 8 112 9 41 1 78 5 82 9 4 4 13 4 21
1 8 -3 14 -1 14 4 0 5 6 10 13 10 43 1 96 18 159 50 72 37 77 39 99 42 5 0 7
6 4 11 -3 6 3 10 14 10 12 0 21 4 21 8 0 5 19 19 42 32 52 29 151 127 143 140
-4 6 -1 10 6 10 7 0 9 3 6 7 -4 3 0 14 9 24 9 10 14 25 11 33 -3 8 -3 17 1 20
3 4 7 14 9 24 2 9 5 24 7 32 2 8 0 20 -4 25 -5 6 -9 13 -9 18 -1 4 -1 8 -2 10
-1 1 -2 13 -3 27 -4 36 -34 100 -48 100 -6 0 -8 3 -5 7 4 3 0 17 -8 29 -13 20
-13 25 1 38 8 9 13 16 9 16 -6 0 3 12 53 67 18 20 31 42 28 49 -3 7 2 15 10
18 8 3 14 11 14 18 0 7 9 30 19 50 11 19 18 38 15 40 -2 3 2 20 9 39 11 28 15
106 7 117 -2 1 -3 5 -5 10 -1 4 -5 21 -10 37 -17 63 -53 115 -88 128 -31 12
-11 46 77 132 78 76 103 112 101 145 0 8 4 18 9 22 12 8 15 105 5 135 -13 35
21 58 68 46 41 -9 103 -9 169 0 23 4 69 9 102 12 89 7 144 15 153 21 5 3 30 7
56 9 56 4 88 11 105 21 7 4 28 9 47 11 18 2 42 8 52 13 10 6 35 12 56 15 21 3
61 13 90 24 28 10 54 16 57 13 3 -3 6 0 6 6 0 7 12 12 28 12 15 0 38 7 50 16
12 8 26 12 32 9 5 -3 20 1 32 9 13 8 34 16 48 18 14 2 34 9 46 15 11 7 34 14
49 17 16 3 33 10 39 16 5 5 18 10 27 10 9 0 22 7 29 15 7 8 16 13 20 10 4 -2
23 5 43 15 21 11 37 18 37 15 0 -6 78 33 114 59 16 11 26 14 22 7 -5 -7 9 -2
30 11 22 13 57 32 79 43 22 11 48 26 57 34 9 8 24 16 32 17 18 2 65 36 66 46
0 4 7 5 15 2 8 -4 15 -1 15 6 0 6 4 9 9 5 6 -3 13 1 18 9 4 8 10 14 13 13 3
-1 20 10 38 23 17 13 39 25 47 26 13 2 42 22 95 67 8 6 32 24 55 38 22 15 50
36 62 48 12 11 27 21 33 21 5 0 10 8 10 17 0 9 3 14 6 10 8 -8 17 0 137 116
56 53 106 97 111 97 5 0 6 3 3 7 -4 3 5 15 20 25 16 10 24 18 20 18 -9 0 3 13
51 53 19 15 32 27 29 27 -2 0 38 42 90 94 51 52 93 102 93 111 0 9 5 13 10 10
6 -3 10 -2 10 4 0 5 16 15 35 21 19 6 35 16 35 20 0 5 7 7 16 3 9 -3 23 -7 32
-8 10 -1 31 -7 47 -15 61 -26 132 -33 169 -14 16 8 34 14 41 14 7 0 20 9 30
20 10 11 21 17 26 15 4 -3 14 3 21 13 7 10 23 24 35 31 13 6 22 15 20 19 -1 5
11 20 27 35 16 15 25 27 20 27 -5 0 -1 5 9 11 9 6 14 15 11 21 -4 7 -2 8 4 4
12 -7 42 42 42 70 0 10 3 14 6 11 9 -8 44 32 44 49 0 7 6 19 13 26 6 7 14 22
15 33 2 11 10 24 18 28 9 5 12 16 9 27 -4 11 0 22 10 28 14 7 21 24 24 55 1 5
6 5 11 2 6 -4 9 -3 8 2 -3 13 13 53 22 53 4 0 7 8 6 18 -2 9 4 24 13 32 18 17
24 35 23 68 -1 12 3 22 8 22 6 0 10 7 10 15 0 8 7 23 17 34 9 11 17 35 18 53
0 18 5 40 10 48 10 16 13 29 17 67 1 13 5 23 8 23 7 0 13 55 13 118 0 23 4 42
9 42 4 0 5 17 2 38 -4 20 -7 56 -7 79 0 23 -4 40 -8 37 -8 -5 -21 28 -24 60
-1 11 -7 22 -14 24 -6 2 -9 8 -5 13 3 5 0 9 -6 9 -6 0 -9 4 -5 9 3 5 -4 12
-14 16 -11 3 -18 12 -15 20 3 7 0 16 -7 21 -8 5 -10 3 -4 -7 5 -8 0 -7 -12 4
-11 9 -22 14 -26 11 -11 -11 0 76 12 90 6 8 14 24 16 35 2 12 15 54 28 94 29
84 79 255 82 277 3 23 17 74 24 85 3 6 7 19 8 30 2 11 7 29 12 40 5 11 14 40
21 65 6 25 18 60 27 79 8 18 16 39 18 45 1 6 6 26 10 44 4 17 11 32 14 32 6 0
32 60 37 85 1 6 19 46 40 90 22 44 41 91 42 104 2 14 10 34 17 45 8 12 15 32
17 46 2 14 9 35 16 47 7 12 12 29 12 38 0 9 6 28 14 43 8 15 15 43 17 62 2 19
7 37 10 40 4 3 10 23 13 45 4 22 9 48 12 57 9 31 13 57 19 150 4 51 10 107 13
123 8 35 7 217 -1 259 -3 15 -9 72 -13 125 -3 53 -9 101 -14 106 -4 6 -7 17
-7 25 -1 36 -12 99 -21 116 -12 24 -34 92 -38 119 -2 11 -5 29 -7 39 -2 13 13
37 45 69 26 27 48 53 48 59 0 5 4 7 8 4 13 -8 39 28 47 63 4 17 10 29 13 27 4
-2 13 2 20 10 7 8 10 14 6 14 -3 0 -1 7 6 15 6 8 8 20 4 26 -4 8 -3 9 5 5 6
-4 14 0 17 11 3 10 13 33 21 51 8 19 12 36 9 39 -3 4 -2 11 3 17 20 24 38 161
22 170 -10 7 -102 -78 -100 -92 3 -18 -2 -35 -7 -29 -8 8 -34 -18 -34 -33 0
-6 -4 -9 -8 -6 -5 3 -15 -4 -22 -15 -8 -10 -20 -19 -27 -19 -7 0 -13 -3 -13
-8 0 -22 -154 -51 -211 -40 -21 5 -69 43 -69 56 0 5 -13 24 -30 42 -16 18 -30
34 -30 36 0 5 -15 25 -42 55 -10 10 -16 19 -13 19 6 0 -20 31 -55 69 -14 14
-39 44 -55 66 -17 22 -54 64 -82 93 -29 30 -53 57 -54 61 -1 3 -32 33 -69 66
-37 33 -68 65 -69 70 -1 6 -15 19 -31 30 -16 11 -30 26 -30 33 0 6 -4 12 -8
12 -4 0 -31 21 -60 48 -28 26 -64 57 -79 69 -16 12 -47 39 -70 60 -24 21 -57
49 -73 63 -17 14 -37 31 -45 38 -7 6 -21 12 -30 12 -9 0 -14 4 -11 9 3 5 -20
26 -51 47 -31 22 -68 49 -81 62 -14 12 -30 22 -37 22 -7 0 -20 9 -31 21 -10
11 -32 27 -49 35 -16 8 -45 25 -64 39 -18 14 -39 22 -45 18 -6 -3 -8 -3 -4 1
9 11 -27 44 -57 52 -14 3 -25 10 -25 15 0 5 -8 9 -18 9 -10 0 -34 14 -52 30
-18 17 -38 30 -43 30 -5 0 -25 14 -44 30 -18 17 -42 30 -52 30 -10 0 -22 7
-25 16 -3 8 -10 13 -15 9 -5 -3 -20 5 -33 17 -13 13 -30 24 -38 26 -8 2 -22 9
-30 16 -18 16 -81 38 -88 31 -3 -2 -10 2 -16 11 -6 8 -18 16 -26 18 -8 1 -25
7 -36 14 -12 6 -24 8 -28 5 -3 -3 -6 -1 -6 5 0 6 -21 18 -47 26 -27 8 -61 20
-78 27 -27 11 -38 15 -70 22 -5 1 -15 6 -21 9 -6 4 -21 9 -35 12 -13 2 -36 9
-51 15 -16 6 -28 8 -28 5 0 -4 -6 -2 -12 3 -7 5 -58 20 -113 32 -55 13 -107
26 -115 29 -8 3 -35 7 -60 8 -25 1 -45 3 -45 4 0 2 -25 6 -90 15 -45 6 -383
14 -388 9z"/>
</g>
</svg>
